<?xml version="1.0" standalone="no"?><!DOCTYPE svg PUBLIC "-//W3C//DTD SVG 1.1//EN" "http://www.w3.org/Graphics/SVG/1.1/DTD/svg11.dtd"><svg t="1603627759472" class="icon" viewBox="0 0 1024 1024" version="1.1" xmlns="http://www.w3.org/2000/svg" p-id="858" xmlns:xlink="http://www.w3.org/1999/xlink" width="200" height="200"><defs><style type="text/css"></style></defs><path d="M312 576l-80 80v128h160v-128z" fill="#FFA000" p-id="859"></path><path d="M397.664 650.336l-80-80a8 8 0 0 0-11.312 0l-80 80A8 8 0 0 0 224 656v128a8 8 0 0 0 8 8h160a8 8 0 0 0 8-8v-128a8 8 0 0 0-2.336-5.664zM384 776h-144v-116.688l72-72 72 72V776z" fill="#37474F" p-id="860"></path><path d="M317.664 615.6a8 8 0 0 0-11.312 0l-48 48a8 8 0 0 0-2.352 5.664V752a8 8 0 0 0 16 0v-79.424l45.664-45.664a8 8 0 0 0 0-11.312z" fill="#FFCA28" p-id="861"></path><path d="M920 912h-896a16 16 0 0 0-16 16v48a16 16 0 0 0 16 16h896a16 16 0 0 0 16-16v-48a16 16 0 0 0-16-16z" fill="#BDBDBD" p-id="862"></path><path d="M920 904h-896c-13.232 0-24 10.768-24 24v48c0 13.232 10.768 24 24 24h896c13.232 0 24-10.768 24-24v-48c0-13.232-10.752-24-24-24zM928 976a8 8 0 0 1-8 8h-896A8 8 0 0 1 16 976v-48a8 8 0 0 1 8-8h896a8 8 0 0 1 8 8v48z" fill="#37474F" p-id="863"></path><path d="M24 88a16 16 0 0 0-16 16v48a16 16 0 0 0 16 16H400v-80H24z" fill="#BDBDBD" p-id="864"></path><path d="M400 80H24C10.768 80 0 90.768 0 104v48c0 13.232 10.768 24 24 24H400a8 8 0 0 0 8-8v-80A8 8 0 0 0 400 80z m-8 80h-368a8 8 0 0 1-8-8v-48a8 8 0 0 1 8-8h368v64z" fill="#37474F" p-id="865"></path><path d="M1000 88H656v80h344a16 16 0 0 0 16-16v-48a16 16 0 0 0-16-16z" fill="#EEEEEE" p-id="866"></path><path d="M1000 80H656a8 8 0 0 0-8 8v80a8 8 0 0 0 8 8h344c13.232 0 24-10.768 24-24v-48c0-13.232-10.752-24-24-24z m8 72a8 8 0 0 1-8 8h-336V96h336a8 8 0 0 1 8 8v48z" fill="#37474F" p-id="867"></path><path d="M520 32h-128A40 40 0 0 0 352 72v112a40 40 0 0 0 40 40h128a40 40 0 0 0 40-40v-112A40 40 0 0 0 520 32z" fill="#455A64" p-id="868"></path><path d="M520 24h-128c-26.464 0-48 21.536-48 48v112c0 26.464 21.536 48 48 48h128c26.464 0 48-21.536 48-48v-112c0-26.464-21.52-48-48-48z m32 160c0 17.648-14.352 32-32 32h-128c-17.648 0-32-14.352-32-32v-112c0-17.648 14.352-32 32-32h128c17.648 0 32 14.352 32 32v112z" fill="#37474F" p-id="869"></path><path d="M88 88a16 16 0 0 0-16 16v48a16 16 0 0 0 16 16h320v-80h-320z" fill="#EEEEEE" p-id="870"></path><path d="M408 80h-320C74.768 80 64 90.768 64 104v48c0 13.232 10.768 24 24 24h320a8 8 0 0 0 8-8v-80a8 8 0 0 0-8-8z m-8 80H88a8 8 0 0 1-8-8v-48a8 8 0 0 1 8-8H400v64z" fill="#37474F" p-id="871"></path><path d="M616 32h-128A40 40 0 0 0 448 72v112a40 40 0 0 0 40 40h128a40 40 0 0 0 40-40v-112A40 40 0 0 0 616 32z" fill="#78909C" p-id="872"></path><path d="M616 24h-128c-26.464 0-48 21.536-48 48v112c0 26.464 21.536 48 48 48h128c26.464 0 48-21.536 48-48v-112c0-26.464-21.52-48-48-48z m32 160c0 17.648-14.352 32-32 32h-128c-17.648 0-32-14.352-32-32v-112c0-17.648 14.352-32 32-32h128c17.648 0 32 14.352 32 32v112z" fill="#37474F" p-id="873"></path><path d="M480 64a8 8 0 0 0-8 8v112a8 8 0 0 0 16 0v-112A8 8 0 0 0 480 64z" fill="#B0BEC5" p-id="874"></path><path d="M624 64a8 8 0 0 0-8 8v112a8 8 0 0 0 16 0v-112A8 8 0 0 0 624 64z" fill="#455A64" p-id="875"></path><path d="M464 224v96l40 40L544 320v-96z" fill="#EEEEEE" p-id="876"></path><path d="M544 216h-80a8 8 0 0 0-8 8v96c0 2.128 0.848 4.16 2.336 5.664l40 40a8.096 8.096 0 0 0 11.328 0l40-40A8 8 0 0 0 552 320v-96a8 8 0 0 0-8-8z m-8 100.688l-32 32-32-32V232h64v84.688z" fill="#37474F" p-id="877"></path><path d="M1000 912h-896a16 16 0 0 0-16 16v48a16 16 0 0 0 16 16h896a16 16 0 0 0 16-16v-48a16 16 0 0 0-16-16z" fill="#EEEEEE" p-id="878"></path><path d="M1000 904h-896c-13.232 0-24 10.768-24 24v48c0 13.232 10.768 24 24 24h896c13.232 0 24-10.768 24-24v-48c0-13.232-10.752-24-24-24zM1008 976a8 8 0 0 1-8 8h-896A8 8 0 0 1 96 976v-48a8 8 0 0 1 8-8h896a8 8 0 0 1 8 8v48z" fill="#37474F" p-id="879"></path><path d="M680 784h-512A40 40 0 0 0 128 824V912h592v-88a40 40 0 0 0-40-40z" fill="#0097A7" p-id="880"></path><path d="M680 776h-512c-26.464 0-48 21.536-48 48V912a8 8 0 0 0 8 8h592a8 8 0 0 0 8-8v-88c0-26.464-21.52-48-48-48z m32 128h-576v-80c0-17.648 14.352-32 32-32h512c17.648 0 32 14.352 32 32v80z" fill="#37474F" p-id="881"></path><path d="M840 784h-512a40 40 0 0 0-40 40V912h592v-88a40 40 0 0 0-40-40z" fill="#26C6DA" p-id="882"></path><path d="M840 776h-512c-26.464 0-48 21.536-48 48V912a8 8 0 0 0 8 8h592a8 8 0 0 0 8-8v-88c0-26.464-21.52-48-48-48z m32 128h-576v-80c0-17.648 14.352-32 32-32h512c17.648 0 32 14.352 32 32v80z" fill="#37474F" p-id="883"></path><path d="M320 816a8 8 0 0 0-8 8v64a8 8 0 0 0 16 0v-64a8 8 0 0 0-8-8z" fill="#80DEEA" p-id="884"></path><path d="M160 816a8 8 0 0 0-8 8v64a8 8 0 0 0 16 0v-64a8 8 0 0 0-8-8z" fill="#26C6DA" p-id="885"></path><path d="M848 816a8 8 0 0 0-8 8v64a8 8 0 0 0 16 0v-64a8 8 0 0 0-8-8z" fill="#0097A7" p-id="886"></path><path d="M544 280h-80a8 8 0 0 0 0 16h80a8 8 0 0 0 0-16zM544 248h-80a8 8 0 0 0 0 16h80a8 8 0 0 0 0-16z" fill="#37474F" p-id="887"></path><path d="M648 416h128v368h-128z" fill="#FFCA28" p-id="888"></path><path d="M776 408h-128a8 8 0 0 0-8 8v368a8 8 0 0 0 8 8h128a8 8 0 0 0 8-8V416a8 8 0 0 0-8-8z m-8 368h-112v-352h112v352z" fill="#37474F" p-id="889"></path><path d="M520 416h128v368h-128z" fill="#FFA000" p-id="890"></path><path d="M648 408h-128a8 8 0 0 0-8 8v368a8 8 0 0 0 8 8h128a8 8 0 0 0 8-8V416a8 8 0 0 0-8-8z m-8 368h-112v-352h112v352z" fill="#37474F" p-id="891"></path><path d="M520 576h-208l80 80v128h208v-128z" fill="#FFCA28" p-id="892"></path><path d="M605.664 650.336l-80-80a8.064 8.064 0 0 0-5.664-2.336h-208a8 8 0 0 0-5.664 13.664L384 659.312V784a8 8 0 0 0 8 8h208a8 8 0 0 0 8-8v-128a8 8 0 0 0-2.336-5.664zM592 776H400V656a8.064 8.064 0 0 0-2.336-5.664L331.328 584h185.376L592 659.312V776z" fill="#37474F" p-id="893"></path><path d="M504 416h160v32h-160z" fill="#FFA000" p-id="894"></path><path d="M664 408h-160a8 8 0 0 0-8 8v32a8 8 0 0 0 8 8h160a8 8 0 0 0 8-8v-32a8 8 0 0 0-8-8z m-8 32h-144v-16h144v16z" fill="#37474F" p-id="895"></path><path d="M632 416h160v32h-160z" fill="#FFCA28" p-id="896"></path><path d="M792 408h-160a8 8 0 0 0-8 8v32a8 8 0 0 0 8 8h160a8 8 0 0 0 8-8v-32a8 8 0 0 0-8-8z m-8 32h-144v-16h144v16z" fill="#37474F" p-id="897"></path><path d="M648 480h128v224h-128z" fill="#EEEEEE" p-id="898"></path><path d="M776 472h-128a8 8 0 0 0-8 8v224a8 8 0 0 0 8 8h128a8 8 0 0 0 8-8V480a8 8 0 0 0-8-8z m-8 224h-112v-208h112v208z" fill="#37474F" p-id="899"></path><path d="M712 696a8 8 0 0 0-8 8v80a8 8 0 0 0 16 0v-80a8 8 0 0 0-8-8zM776 528h-128a8 8 0 0 0 0 16h128a8 8 0 0 0 0-16zM776 584h-128a8 8 0 0 0 0 16h128a8 8 0 0 0 0-16zM776 640h-128a8 8 0 0 0 0 16h128a8 8 0 0 0 0-16z" fill="#37474F" p-id="900"></path><path d="M520 576h-208l80 80h208z" fill="#FF7043" p-id="901"></path><path d="M605.664 650.336l-80-80a8.064 8.064 0 0 0-5.664-2.336h-208a8 8 0 0 0-5.664 13.664l80 80a8 8 0 0 0 5.664 2.336h208a8 8 0 0 0 5.664-13.664zM395.328 648l-64-64h185.376l64 64H395.328z" fill="#37474F" p-id="902"></path><path d="M472 704h48v80h-48z" fill="#EEEEEE" p-id="903"></path><path d="M520 696h-48a8 8 0 0 0-8 8v80a8 8 0 0 0 8 8h48a8 8 0 0 0 8-8v-80a8 8 0 0 0-8-8z m-8 80h-32v-64h32v64z" fill="#37474F" p-id="904"></path><path d="M312 360a40 40 0 1 0-80 0 40 40 0 1 0 0 80h80a40 40 0 1 0 0-80z" fill="#EEEEEE" p-id="905"></path><path d="M319.44 352.576C315.856 329.616 295.952 312 272 312s-43.84 17.616-47.424 40.576A48.08 48.08 0 0 0 184 400c0 26.464 21.536 48 48 48h80c26.464 0 48-21.536 48-48a48.064 48.064 0 0 0-40.56-47.424zM312 432h-80c-17.648 0-32-14.352-32-32s14.352-32 32-32a8 8 0 0 0 8-8c0-17.648 14.352-32 32-32s32 14.352 32 32a8 8 0 0 0 8 8c17.648 0 32 14.352 32 32s-14.336 32-32 32z" fill="#37474F" p-id="906"></path><path d="M980 464h-8v-4a28 28 0 0 0-56 0V464h-8a28 28 0 0 0 0 56h72a28 28 0 0 0 0-56z" fill="#EEEEEE" p-id="907"></path><path d="M980 456h-0.224c-2-17.984-17.28-32-35.776-32s-33.776 14.016-35.776 32h-0.224c-19.856 0-36 16.144-36 36S888.16 528 908 528h72c19.856 0 36-16.144 36-36s-16.144-36-36-36z m0 56h-72c-11.024 0-20-8.976-20-20s8.976-20 20-20h8a8 8 0 0 0 8-8v-4c0-11.024 8.976-20 20-20s20 8.976 20 20V464a8 8 0 0 0 8 8h8a20.016 20.016 0 0 1 0 40z" fill="#37474F" p-id="908"></path><path d="M124 544h-8v-4a28 28 0 1 0-56 0V544h-8a28 28 0 0 0 0 56h72a28 28 0 0 0 0-56z" fill="#EEEEEE" p-id="909"></path><path d="M124 536h-0.208c-2-17.984-17.28-32-35.776-32s-33.776 14.016-35.776 32H52C32.16 536 16 552.144 16 572S32.16 608 52 608h72C143.856 608 160 591.856 160 572S143.856 536 124 536z m0 56h-72C40.976 592 32 583.024 32 572s8.976-20 20-20h8a8 8 0 0 0 8-8v-4c0-11.024 8.976-20 20-20s20 8.976 20 20V544a8 8 0 0 0 8 8h8a20.016 20.016 0 0 1 0 40z" fill="#37474F" p-id="910"></path></svg>